<svg xmlns="http://www.w3.org/2000/svg" style="display:none;">
    <!--LinkedIn Icon-->
    <symbol id="linkedin-icon" viewBox="0 0 20 20">
	<path fill="currentColor" d="M17.04 17.043h-2.962v-4.64c0-1.107-.023-2.531-1.544-2.531c-1.544 0-1.78 1.204-1.78 2.449v4.722H7.793V7.5h2.844v1.3h.039c.397-.75 1.364-1.54 2.808-1.54c3.001 0 3.556 1.974 3.556 4.545zM4.447 6.194c-.954 0-1.72-.771-1.72-1.72s.767-1.72 1.72-1.72a1.72 1.72 0 0 1 0 3.44m1.484 10.85h-2.97V7.5h2.97zM18.522 0H1.476C.66 0 0 .645 0 1.44v17.12C0 19.355.66 20 1.476 20h17.042c.815 0 1.482-.644 1.482-1.44V1.44C20 .646 19.333 0 18.518 0z" />
    </symbol>
    <!--GitHub Icon-->
    <symbol id="github-icon" viewBox="0 0 64 64">
	<path fill="currentColor" d="M32 0C14 0 0 14 0 32c0 21 19 30 22 30c2 0 2-1 2-2v-5c-7 2-10-2-11-5c0 0 0-1-2-3c-1-1-5-3-1-3c3 0 5 4 5 4c3 4 7 3 9 2c0-2 2-4 2-4c-8-1-14-4-14-15q0-6 3-9s-2-4 0-9c0 0 5 0 9 4c3-2 13-2 16 0c4-4 9-4 9-4c2 7 0 9 0 9q3 3 3 9c0 11-7 14-14 15c1 1 2 3 2 6v8c0 1 0 2 2 2c3 0 22-9 22-30C64 14 50 0 32 0" />
    </symbol>
    <!--Mail Icon-->
    <symbol id="mail-icon" viewBox="0 0 24 24">
	<g fill="none" stroke="currentColor" stroke-linecap="round" stroke-width="1.5">
		<path stroke-linejoin="round" d="m5 9l4.5 3L14 9" />
		<path d="M17 19H3a2 2 0 0 1-2-2V7a2 2 0 0 1 2-2h13a2 2 0 0 1 2 2v2" />
		<path stroke-linejoin="round" d="M23 14h-6m0 0l3-3m-3 3l3 3" />
	</g>
    </symbol>
    <!--Casa Icon-->
    <symbol id="home-icon" viewBox="0 0 512 512">
	<path fill="none" stroke="currentColor" stroke-linecap="round" stroke-linejoin="round" stroke-width="32" d="M80 212v236a16 16 0 0 0 16 16h96V328a24 24 0 0 1 24-24h80a24 24 0 0 1 24 24v136h96a16 16 0 0 0 16-16V212" />
	<path fill="none" stroke="currentColor" stroke-linecap="round" stroke-linejoin="round" stroke-width="32" d="M480 256L266.89 52c-5-5.28-16.69-5.34-21.78 0L32 256m368-77V64h-48v69" />
    </symbol>
    <!--Carpeta Icon-->
    <symbol id="folder-icon" viewBox="0 0 16 16">
	<path fill="currentColor" d="M.54 3.87L.5 3a2 2 0 0 1 2-2h3.672a2 2 0 0 1 1.414.586l.828.828A2 2 0 0 0 9.828 3h3.982a2 2 0 0 1 1.992 2.181l-.637 7A2 2 0 0 1 13.174 14H2.826a2 2 0 0 1-1.991-1.819l-.637-7a2 2 0 0 1 .342-1.31zM2.19 4a1 1 0 0 0-.996 1.09l.637 7a1 1 0 0 0 .995.91h10.348a1 1 0 0 0 .995-.91l.637-7A1 1 0 0 0 13.81 4zm4.69-1.707A1 1 0 0 0 6.172 2H2.5a1 1 0 0 0-1 .981l.006.139q.323-.119.684-.12h5.396z" />
    </symbol>
    <!--About Icon-->
    <symbol id="about-icon" viewBox="0 0 24 24">
	<path fill="currentColor" d="M22 3H2C.9 3 0 3.9 0 5v14c0 1.1.9 2 2 2h20c1.1 0 1.99-.9 1.99-2L24 5c0-1.1-.9-2-2-2M9 8c1.65 0 3 1.35 3 3s-1.35 3-3 3s-3-1.35-3-3s1.35-3 3-3M2.08 19c1.38-2.39 3.96-4 6.92-4s5.54 1.61 6.92 4zm18.89-9.15l-.75 1.3l-1.47-.85V12h-1.5v-1.7l-1.47.85l-.75-1.3L16.5 9l-1.47-.85l.75-1.3l1.47.85V6h1.5v1.7l1.47-.85l.75 1.3L19.5 9z" />
    </symbol>
    <!--Dev icon-->
    <symbol id="dev-icon" viewBox="0 0 24 24">
	<path fill="currentColor" d="m19.546 7.573l-1.531-1.57l-1.442 1.291l-.959.86l3.876 3.987l-2.426 2.496l-1.451 1.492c.55.499 1.091.99 1.64 1.486l.764.694l2.21-2.277L24 12.14v-.001zM2.992 9.072L0 12.14c2.01 2.073 3.993 4.115 5.984 6.167l.51-.464l1.893-1.715L6.94 14.64l-2.43-2.5l3.109-3.196l.767-.789c-.434-.39-.86-.772-1.288-1.154L5.984 6v.001zm12.585-6.038L11.632 21.6l-.196-.039l-3.029-.595l2.555-12.02L12.353 2.4z" />
    </symbol>
    <!--CSS Icon-->
    <symbol id="css-icon" viewBox="0 0 256 256">
	<g fill="none">
		<rect width="256" height="256" fill="#0277bd" rx="60" />
		<path fill="#ebebeb" d="m53.753 102.651l2.862 31.942h71.481v-31.942zM128.095 38H48l2.904 31.942h77.191zm0 180.841v-33.233l-.14.037l-35.574-9.605l-2.274-25.476H58.042l4.475 50.154l65.431 18.164z" />
		<path fill="#fff" d="m167.318 134.593l-3.708 41.426l-35.625 9.616v33.231l65.483-18.148l.48-5.397l7.506-84.092l.779-8.578L208 38h-80.015v31.942h45.009l-2.906 32.709h-42.103v31.942z" />
	</g>
    </symbol>
    <!--HTML Icon-->
    <symbol id="html-icon" viewBox="0 0 32 32">
	<path fill="#e44f26" d="M5.902 27.201L3.655 2h24.69l-2.25 25.197L15.985 30z" />
	<path fill="#f1662a" d="m16 27.858l8.17-2.265l1.922-21.532H16z" />
	<path fill="#ebebeb" d="M16 13.407h-4.09l-.282-3.165H16V7.151H8.25l.074.83l.759 8.517H16zm0 8.027l-.014.004l-3.442-.929l-.22-2.465H9.221l.433 4.852l6.332 1.758l.014-.004z" />
	<path fill="#fff" d="M15.989 13.407v3.091h3.806l-.358 4.009l-3.448.93v3.216l6.337-1.757l.046-.522l.726-8.137l.076-.83zm0-6.256v3.091h7.466l.062-.694l.141-1.567l.074-.83z" />
    </symbol>
    <!--JavaScript icon-->
    <symbol id="javascript-icon" viewBox="0 0 256 256">
	<g fill="none">
		<rect width="256" height="256" fill="#f0db4f" rx="60" />
		<path fill="#323330" d="m67.312 213.932l19.59-11.856c3.78 6.701 7.218 12.371 15.465 12.371c7.905 0 12.889-3.092 12.889-15.12v-81.798h24.058v82.138c0 24.917-14.606 36.259-35.916 36.259c-19.245 0-30.416-9.967-36.087-21.996m85.07-2.576l19.588-11.341c5.157 8.421 11.859 14.607 23.715 14.607c9.969 0 16.325-4.984 16.325-11.858c0-8.248-6.53-11.17-17.528-15.98l-6.013-2.579c-17.357-7.388-28.871-16.668-28.871-36.258c0-18.044 13.748-31.792 35.229-31.792c15.294 0 26.292 5.328 34.196 19.247l-18.731 12.029c-4.125-7.389-8.591-10.31-15.465-10.31c-7.046 0-11.514 4.468-11.514 10.31c0 7.217 4.468 10.139 14.778 14.608l6.014 2.577c20.449 8.765 31.963 17.699 31.963 37.804c0 21.654-17.012 33.51-39.867 33.51c-22.339 0-36.774-10.654-43.819-24.574" />
	</g>
    </symbol>
    <!--TypeScript Icon-->
    <symbol id="typescript-icon" viewBox="0 0 256 256">
	<g fill="none">
		<rect width="256" height="256" fill="#007acc" rx="60" />
		<path fill="#fff" d="m56.611 128.849l-.081 10.484h33.32v94.679h23.569v-94.679h33.32v-10.281c0-5.689-.121-10.443-.284-10.565c-.122-.162-20.399-.244-44.983-.203l-44.739.122zm149.956-10.741c6.501 1.626 11.459 4.511 16.01 9.224c2.357 2.52 5.851 7.112 6.136 8.209c.081.325-11.053 7.802-17.798 11.987c-.244.163-1.22-.894-2.317-2.519c-3.291-4.795-6.745-6.868-12.028-7.233c-7.761-.529-12.759 3.535-12.718 10.321c0 1.991.284 3.169 1.097 4.795c1.706 3.535 4.876 5.648 14.832 9.955c18.326 7.884 26.168 13.085 31.045 20.48c5.445 8.249 6.664 21.415 2.966 31.208c-4.063 10.646-14.141 17.879-28.323 20.277c-4.388.772-14.791.65-19.504-.203c-10.281-1.829-20.033-6.908-26.047-13.572c-2.357-2.601-6.949-9.387-6.664-9.875c.121-.162 1.178-.812 2.356-1.503c1.138-.65 5.446-3.129 9.509-5.486l7.355-4.267l1.544 2.276c2.154 3.291 6.867 7.802 9.712 9.305c8.167 4.308 19.383 3.698 24.909-1.259c2.357-2.154 3.332-4.389 3.332-7.68c0-2.967-.366-4.267-1.91-6.502c-1.991-2.844-6.054-5.242-17.595-10.24c-13.206-5.689-18.895-9.224-24.096-14.832c-3.007-3.25-5.852-8.452-7.03-12.8c-.975-3.616-1.219-12.678-.447-16.335c2.722-12.759 12.353-21.658 26.25-24.3c4.511-.853 14.994-.528 19.424.569" />
	</g>
    </symbol>
    <!--React Icon-->
    <symbol id="react-icon" viewBox="0 0 256 228">
	<path fill="#00d8ff" d="M210.483 73.824a172 172 0 0 0-8.24-2.597c.465-1.9.893-3.777 1.273-5.621c6.238-30.281 2.16-54.676-11.769-62.708c-13.355-7.7-35.196.329-57.254 19.526a171 171 0 0 0-6.375 5.848a156 156 0 0 0-4.241-3.917C100.759 3.829 77.587-4.822 63.673 3.233C50.33 10.957 46.379 33.89 51.995 62.588a171 171 0 0 0 1.892 8.48c-3.28.932-6.445 1.924-9.474 2.98C17.309 83.498 0 98.307 0 113.668c0 15.865 18.582 31.778 46.812 41.427a146 146 0 0 0 6.921 2.165a168 168 0 0 0-2.01 9.138c-5.354 28.2-1.173 50.591 12.134 58.266c13.744 7.926 36.812-.22 59.273-19.855a146 146 0 0 0 5.342-4.923a168 168 0 0 0 6.92 6.314c21.758 18.722 43.246 26.282 56.54 18.586c13.731-7.949 18.194-32.003 12.4-61.268a145 145 0 0 0-1.535-6.842c1.62-.48 3.21-.974 4.76-1.488c29.348-9.723 48.443-25.443 48.443-41.52c0-15.417-17.868-30.326-45.517-39.844m-6.365 70.984q-2.102.694-4.3 1.345c-3.24-10.257-7.612-21.163-12.963-32.432c5.106-11 9.31-21.767 12.459-31.957c2.619.758 5.16 1.557 7.61 2.4c23.69 8.156 38.14 20.213 38.14 29.504c0 9.896-15.606 22.743-40.946 31.14m-10.514 20.834c2.562 12.94 2.927 24.64 1.23 33.787c-1.524 8.219-4.59 13.698-8.382 15.893c-8.067 4.67-25.32-1.4-43.927-17.412a157 157 0 0 1-6.437-5.87c7.214-7.889 14.423-17.06 21.459-27.246c12.376-1.098 24.068-2.894 34.671-5.345q.785 3.162 1.386 6.193M87.276 214.515c-7.882 2.783-14.16 2.863-17.955.675c-8.075-4.657-11.432-22.636-6.853-46.752a157 157 0 0 1 1.869-8.499c10.486 2.32 22.093 3.988 34.498 4.994c7.084 9.967 14.501 19.128 21.976 27.15a135 135 0 0 1-4.877 4.492c-9.933 8.682-19.886 14.842-28.658 17.94M50.35 144.747c-12.483-4.267-22.792-9.812-29.858-15.863c-6.35-5.437-9.555-10.836-9.555-15.216c0-9.322 13.897-21.212 37.076-29.293c2.813-.98 5.757-1.905 8.812-2.773c3.204 10.42 7.406 21.315 12.477 32.332c-5.137 11.18-9.399 22.249-12.634 32.792a135 135 0 0 1-6.318-1.979m12.378-84.26c-4.811-24.587-1.616-43.134 6.425-47.789c8.564-4.958 27.502 2.111 47.463 19.835a144 144 0 0 1 3.841 3.545c-7.438 7.987-14.787 17.08-21.808 26.988c-12.04 1.116-23.565 2.908-34.161 5.309a160 160 0 0 1-1.76-7.887m110.427 27.268a348 348 0 0 0-7.785-12.803c8.168 1.033 15.994 2.404 23.343 4.08c-2.206 7.072-4.956 14.465-8.193 22.045a381 381 0 0 0-7.365-13.322m-45.032-43.861c5.044 5.465 10.096 11.566 15.065 18.186a322 322 0 0 0-30.257-.006c4.974-6.559 10.069-12.652 15.192-18.18M82.802 87.83a323 323 0 0 0-7.227 13.238c-3.184-7.553-5.909-14.98-8.134-22.152c7.304-1.634 15.093-2.97 23.209-3.984a322 322 0 0 0-7.848 12.897m8.081 65.352c-8.385-.936-16.291-2.203-23.593-3.793c2.26-7.3 5.045-14.885 8.298-22.6a321 321 0 0 0 7.257 13.246c2.594 4.48 5.28 8.868 8.038 13.147m37.542 31.03c-5.184-5.592-10.354-11.779-15.403-18.433c4.902.192 9.899.29 14.978.29c5.218 0 10.376-.117 15.453-.343c-4.985 6.774-10.018 12.97-15.028 18.486m52.198-57.817c3.422 7.8 6.306 15.345 8.596 22.52c-7.422 1.694-15.436 3.058-23.88 4.071a382 382 0 0 0 7.859-13.026a347 347 0 0 0 7.425-13.565m-16.898 8.101a359 359 0 0 1-12.281 19.815a329 329 0 0 1-23.444.823c-7.967 0-15.716-.248-23.178-.732a310 310 0 0 1-12.513-19.846h.001a307 307 0 0 1-10.923-20.627a310 310 0 0 1 10.89-20.637l-.001.001a307 307 0 0 1 12.413-19.761c7.613-.576 15.42-.876 23.31-.876H128c7.926 0 15.743.303 23.354.883a329 329 0 0 1 12.335 19.695a359 359 0 0 1 11.036 20.54a330 330 0 0 1-11 20.722m22.56-122.124c8.572 4.944 11.906 24.881 6.52 51.026q-.518 2.504-1.15 5.09c-10.622-2.452-22.155-4.275-34.23-5.408c-7.034-10.017-14.323-19.124-21.64-27.008a161 161 0 0 1 5.888-5.4c18.9-16.447 36.564-22.941 44.612-18.3M128 90.808c12.625 0 22.86 10.235 22.86 22.86s-10.235 22.86-22.86 22.86s-22.86-10.235-22.86-22.86s10.235-22.86 22.86-22.86" />
    </symbol>
    <!--Astro Icon-->
    <symbol id="astro-icon" viewBox="0 0 256 256">
	<g fill="none">
		<rect width="256" height="256" fill="url(#SVGqPMUpb1e)" rx="60" />
		<path fill="#31274a" fill-rule="evenodd" d="M157.719 33.011c1.634 2.028 2.466 4.765 4.132 10.237l36.396 119.561a151.5 151.5 0 0 0-43.513-14.732l-23.697-80.08a3.086 3.086 0 0 0-4.809-1.593c-.533.4-.922.962-1.109 1.602l-23.411 80.031A151.5 151.5 0 0 0 58 162.791l36.573-119.57c1.673-5.464 2.507-8.195 4.141-10.219a13.44 13.44 0 0 1 5.449-4.032c2.414-.97 5.27-.97 10.984-.97h26.123c5.721 0 8.581 0 10.997.972a13.45 13.45 0 0 1 5.452 4.04" clip-rule="evenodd" />
		<path fill="#ff5d01" fill-rule="evenodd" d="M162.074 168.499c-6 5.131-17.976 8.629-31.77 8.629c-16.931 0-31.122-5.271-34.887-12.359c-1.346 4.063-1.648 8.712-1.648 11.683c0 0-.887 14.585 9.257 24.729a9.54 9.54 0 0 1 9.538-9.538c9.028 0 9.018 7.877 9.009 14.268v.57c0 9.7 5.928 18.015 14.359 21.519a19.55 19.55 0 0 1-1.966-8.572c0-9.251 5.432-12.696 11.744-16.698c5.022-3.185 10.602-6.724 14.448-13.824a26.06 26.06 0 0 0 3.145-12.454c0-2.773-.431-5.445-1.229-7.953" clip-rule="evenodd" />
		<path fill="url(#SVGUPWE2bmY)" fill-rule="evenodd" d="M162.074 168.499c-6 5.131-17.976 8.629-31.77 8.629c-16.931 0-31.122-5.271-34.887-12.359c-1.346 4.063-1.648 8.712-1.648 11.683c0 0-.887 14.585 9.257 24.729a9.54 9.54 0 0 1 9.538-9.538c9.028 0 9.018 7.877 9.009 14.268v.57c0 9.7 5.928 18.015 14.359 21.519a19.55 19.55 0 0 1-1.966-8.572c0-9.251 5.432-12.696 11.744-16.698c5.022-3.185 10.602-6.724 14.448-13.824a26.06 26.06 0 0 0 3.145-12.454c0-2.773-.431-5.445-1.229-7.953" clip-rule="evenodd" />
		<defs>
			<linearGradient id="SVGqPMUpb1e" x1="128" x2="128" y1="0" y2="256" gradientUnits="userSpaceOnUse">
				<stop offset=".193" stop-color="#fcb3b2" />
				<stop offset="1" stop-color="#c587ee" />
			</linearGradient>
			<linearGradient id="SVGUPWE2bmY" x1="189.089" x2="153.565" y1="126.765" y2="201.132" gradientUnits="userSpaceOnUse">
				<stop stop-color="#ff1639" />
				<stop offset="1" stop-color="#ff1639" stop-opacity="0" />
			</linearGradient>
		</defs>
	</g>
	</symbol>
    <!--MySQL Icon-->
    <symbol id="mysql-icon" viewBox="0 0 24 24">
	<path fill="currentColor" d="M16.405 5.501c-.115 0-.193.014-.274.033v.013h.014c.054.104.146.18.214.273c.054.107.1.214.154.32l.014-.015c.094-.066.14-.172.14-.333c-.04-.047-.046-.094-.08-.14c-.04-.067-.126-.1-.18-.153zM5.77 18.695h-.927a51 51 0 0 0-.27-4.41h-.008l-1.41 4.41H2.45l-1.4-4.41h-.01a73 73 0 0 0-.195 4.41H0q.083-2.95.41-5.53h1.15l1.335 4.064h.008l1.347-4.064h1.095q.363 3.024.428 5.53zm4.017-4.08q-.567 3.069-1.492 4.46q-.723 1.074-1.583 1.073q-.228 0-.566-.138v-.494q.166.026.386.026q.402 0 .647-.222q.295-.27.295-.605q0-.233-.23-.944L6.23 14.615h.91l.727 2.36q.247.804.205 1.123q.6-1.598.835-3.483zm12.325 4.08h-2.63v-5.53h.885v4.85h1.745zm-3.32.135l-1.016-.5q.136-.113.255-.25q.649-.76.648-2.253q0-2.745-2.155-2.746q-1.056 0-1.65.697q-.646.762-.646 2.245q-.001 1.459.574 2.14q.524.615 1.583.615q.396 0 .725-.098l1.325.772l.36-.622zM15.5 17.588q-.337-.541-.337-1.736q0-2.09 1.27-2.09q.666 0 .977.5q.336.543.336 1.723q0 2.107-1.27 2.108q-.667 0-.978-.5zm-1.658-.425q0 .706-.516 1.156q-.514.45-1.384.45c-.543 0-1.064-.172-1.573-.515l.237-.476q.656.329 1.19.328q.498 0 .783-.22a.75.75 0 0 0 .3-.615c0-.33-.23-.61-.648-.845c-.388-.213-1.163-.657-1.163-.657c-.422-.307-.632-.636-.632-1.177q0-.674.47-1.085q.471-.416 1.22-.415q.769 0 1.4.41l-.213.476a2.7 2.7 0 0 0-1.064-.23q-.425 0-.654.206a.69.69 0 0 0-.248.524c0 .328.234.61.666.85c.393.215 1.187.67 1.187.67c.433.305.648.63.648 1.168zm9.382-5.852c-.535-.014-.95.04-1.297.188c-.1.04-.26.04-.274.167c.055.053.063.14.11.214c.08.134.218.313.346.407q.208.167.427.31c.26.16.555.255.81.416c.145.094.293.213.44.313c.073.05.12.14.214.172v-.02c-.046-.06-.06-.147-.105-.214c-.067-.067-.134-.127-.2-.193a3.2 3.2 0 0 0-.695-.675c-.214-.146-.682-.35-.77-.595l-.013-.014c.146-.013.32-.066.46-.106c.227-.06.435-.047.67-.106q.16-.042.32-.094v-.06c-.12-.12-.21-.283-.334-.395a9 9 0 0 0-1.104-.823c-.21-.134-.476-.22-.697-.334c-.08-.04-.214-.06-.26-.127c-.12-.146-.19-.34-.275-.514a18 18 0 0 1-.547-1.163c-.12-.262-.193-.523-.34-.763c-.69-1.137-1.437-1.826-2.586-2.5c-.247-.14-.543-.2-.856-.274c-.167-.008-.334-.02-.5-.027c-.11-.047-.216-.174-.31-.235c-.38-.24-1.364-.76-1.644-.072c-.18.434.267.862.422 1.082c.115.153.26.328.34.5c.047.116.06.235.107.356c.106.294.207.622.347.897c.073.14.153.287.247.413c.054.073.146.107.167.227c-.094.136-.1.334-.154.5c-.24.757-.146 1.693.194 2.25c.107.166.362.534.703.393c.3-.12.234-.5.32-.835c.02-.08.007-.133.048-.187v.015c.094.188.188.367.274.555c.206.328.566.668.867.895c.16.12.287.328.487.402v-.02h-.015c-.043-.058-.1-.086-.154-.133a3.5 3.5 0 0 1-.35-.4a9 9 0 0 1-.747-1.218c-.11-.21-.202-.436-.29-.643c-.04-.08-.04-.2-.107-.24c-.1.146-.247.273-.32.453c-.127.288-.14.642-.188 1.01c-.027.007-.014 0-.027.014c-.214-.052-.287-.274-.367-.46c-.2-.475-.233-1.238-.06-1.785c.047-.14.247-.582.167-.716c-.042-.127-.174-.2-.247-.303a2.5 2.5 0 0 1-.24-.427c-.16-.374-.24-.788-.414-1.162c-.08-.173-.22-.354-.334-.513c-.127-.18-.267-.307-.368-.52c-.033-.073-.08-.194-.027-.274c.014-.054.042-.075.094-.09c.088-.072.335.022.422.062c.247.1.455.194.662.334c.094.066.195.193.315.226h.14c.214.047.455.014.655.073c.355.114.675.28.962.46a5.95 5.95 0 0 1 2.085 2.286c.08.154.115.295.188.455c.14.33.313.663.455.982c.14.315.275.636.476.897c.1.14.502.213.682.286c.133.06.34.115.46.188c.23.14.454.3.67.454c.11.076.443.243.463.378" />
    </symbol>
    <!--NodeJS Icon-->
    <symbol id="nodejs-icon" viewBox="0 0 32 32">
	<path fill="#8bc34a" d="M16 20.003v2h4a2 2 0 0 0 2-2v-2a2 2 0 0 0-2-2h-2v-2h4v-2h-4a2 2 0 0 0-2 2v2a2 2 0 0 0 2 2h2v2Z" />
	<path fill="#8bc34a" d="m16 3.003l-12 7v14l4 2h6v-13.5a.5.5 0 0 0-.5-.5h-1a.5.5 0 0 0-.5.5v11.5H8l-2-1.034V11.15l10-5.833l10 5.833v11.703l-10 5.833l-1.745-1.022L13 29.253l3 1.75l12-7v-14Z" />
    </symbol>
    <!--Express Icon-->
    <symbol id="express-icon" viewBox="0 0 128 128">
	<path d="M126.67 98.44c-4.56 1.16-7.38.05-9.91-3.75c-5.68-8.51-11.95-16.63-18-24.9c-.78-1.07-1.59-2.12-2.6-3.45C89 76 81.85 85.2 75.14 94.77c-2.4 3.42-4.92 4.91-9.4 3.7l26.92-36.13L67.6 29.71c4.31-.84 7.29-.41 9.93 3.45c5.83 8.52 12.26 16.63 18.67 25.21c6.45-8.55 12.8-16.67 18.8-25.11c2.41-3.42 5-4.72 9.33-3.46c-3.28 4.35-6.49 8.63-9.72 12.88c-4.36 5.73-8.64 11.53-13.16 17.14c-1.61 2-1.35 3.3.09 5.19C109.9 76 118.16 87.1 126.67 98.44M1.33 61.74c.72-3.61 1.2-7.29 2.2-10.83c6-21.43 30.6-30.34 47.5-17.06C60.93 41.64 63.39 52.62 62.9 65H7.1c-.84 22.21 15.15 35.62 35.53 28.78c7.15-2.4 11.36-8 13.47-15c1.07-3.51 2.84-4.06 6.14-3.06c-1.69 8.76-5.52 16.08-13.52 20.66c-12 6.86-29.13 4.64-38.14-4.89C5.26 85.89 3 78.92 2 71.39c-.15-1.2-.46-2.38-.7-3.57q.03-3.04.03-6.08m5.87-1.49h50.43c-.33-16.06-10.33-27.47-24-27.57c-15-.12-25.78 11.02-26.43 27.57" />
    </symbol>
    <!--NextJS Icon-->
    <symbol id="nextjs-icon" viewBox="0 0 256 256">
	<defs>
		<linearGradient id="logosNextjsIcon0" x1="55.633%" x2="83.228%" y1="56.385%" y2="96.08%">
			<stop offset="0%" stop-color="#fff" />
			<stop offset="100%" stop-color="#fff" stop-opacity="0" />
		</linearGradient>
		<linearGradient id="logosNextjsIcon1" x1="50%" x2="49.953%" y1="0%" y2="73.438%">
			<stop offset="0%" stop-color="#fff" />
			<stop offset="100%" stop-color="#fff" stop-opacity="0" />
		</linearGradient>
		<circle id="logosNextjsIcon2" cx="128" cy="128" r="128" />
	</defs>
	<mask id="logosNextjsIcon3" fill="#fff">
		<use href="#logosNextjsIcon2" />
	</mask>
	<g mask="url(#logosNextjsIcon3)">
		<circle cx="128" cy="128" r="128" />
		<path fill="url(#logosNextjsIcon0)" d="M212.634 224.028L98.335 76.8H76.8v102.357h17.228V98.68L199.11 234.446a128 128 0 0 0 13.524-10.418" />
		<path fill="url(#logosNextjsIcon1)" d="M163.556 76.8h17.067v102.4h-17.067z" />
	</g>
    </symbol>
    <!--Vite Icon-->
    <symbol id="vite-icon" viewBox="0 0 256 257">
	<defs>
		<linearGradient id="logosVitejs0" x1="-.828%" x2="57.636%" y1="7.652%" y2="78.411%">
			<stop offset="0%" stop-color="#41d1ff" />
			<stop offset="100%" stop-color="#bd34fe" />
		</linearGradient>
		<linearGradient id="logosVitejs1" x1="43.376%" x2="50.316%" y1="2.242%" y2="89.03%">
			<stop offset="0%" stop-color="#ffea83" />
			<stop offset="8.333%" stop-color="#ffdd35" />
			<stop offset="100%" stop-color="#ffa800" />
		</linearGradient>
	</defs>
	<path fill="url(#logosVitejs0)" d="M255.153 37.938L134.897 252.976c-2.483 4.44-8.862 4.466-11.382.048L.875 37.958c-2.746-4.814 1.371-10.646 6.827-9.67l120.385 21.517a6.5 6.5 0 0 0 2.322-.004l117.867-21.483c5.438-.991 9.574 4.796 6.877 9.62" />
	<path fill="url(#logosVitejs1)" d="M185.432.063L96.44 17.501a3.27 3.27 0 0 0-2.634 3.014l-5.474 92.456a3.268 3.268 0 0 0 3.997 3.378l24.777-5.718c2.318-.535 4.413 1.507 3.936 3.838l-7.361 36.047c-.495 2.426 1.782 4.5 4.151 3.78l15.304-4.649c2.372-.72 4.652 1.36 4.15 3.788l-11.698 56.621c-.732 3.542 3.979 5.473 5.943 2.437l1.313-2.028l72.516-144.72c1.215-2.423-.88-5.186-3.54-4.672l-25.505 4.922c-2.396.462-4.435-1.77-3.759-4.114l16.646-57.705c.677-2.35-1.37-4.583-3.769-4.113" />
    </symbol>
	<!--TailwindCSS-->
	<symbol id="tailwindcss-icon" viewBox="0 0 256 154">
	<defs>
		<linearGradient id="logosTailwindcssIcon0" x1="-2.778%" x2="100%" y1="32%" y2="67.556%">
			<stop offset="0%" stop-color="#2298bd" />
			<stop offset="100%" stop-color="#0ed7b5" />
		</linearGradient>
	</defs>
	<path fill="url(#logosTailwindcssIcon0)" d="M128 0Q76.8 0 64 51.2Q83.2 25.6 108.8 32c9.737 2.434 16.697 9.499 24.401 17.318C145.751 62.057 160.275 76.8 192 76.8q51.2 0 64-51.2q-19.2 25.6-44.8 19.2c-9.737-2.434-16.697-9.499-24.401-17.318C174.249 14.743 159.725 0 128 0M64 76.8q-51.2 0-64 51.2q19.2-25.6 44.8-19.2c9.737 2.434 16.697 9.499 24.401 17.318C81.751 138.857 96.275 153.6 128 153.6q51.2 0 64-51.2q-19.2 25.6-44.8 19.2c-9.737-2.434-16.697-9.499-24.401-17.318C110.249 91.543 95.725 76.8 64 76.8" />
	</symbol>
	<!--Web Icon-->
	<symbol id="web-icon" viewBox="0 0 256 256">
	<path fill="currentColor" d="M208 44H48a20 20 0 0 0-20 20v112a20 20 0 0 0 20 20h160a20 20 0 0 0 20-20V64a20 20 0 0 0-20-20m12 132a12 12 0 0 1-12 12H48a12 12 0 0 1-12-12V64a12 12 0 0 1 12-12h160a12 12 0 0 1 12 12Zm-56 48a4 4 0 0 1-4 4H96a4 4 0 0 1 0-8h64a4 4 0 0 1 4 4" />
	</symbol>
</svg>
